<?xml version="1.0" encoding="iso-8859-1"?>
<!-- Generator: Adobe Illustrator 19.0.0, SVG Export Plug-In . SVG Version: 6.00 Build 0)  -->
<svg version="1.1" id="Layer_1" xmlns="http://www.w3.org/2000/svg" xmlns:xlink="http://www.w3.org/1999/xlink" x="0px" y="0px"
	 viewBox="0 0 512 512" style="enable-background:new 0 0 512 512;" xml:space="preserve">
<g>
	<g>
		<path d="M511.224,129.196c-1.579-3.81-5.297-6.296-9.423-6.296H10.199c-4.126,0-7.844,2.486-9.423,6.296
			c-1.578,3.811-0.705,8.198,2.211,11.115l245.801,245.801c1.992,1.992,4.601,2.987,7.212,2.987c2.611,0,5.22-0.995,7.212-2.987
			l245.801-245.801C511.928,137.394,512.802,133.008,511.224,129.196z M256,364.477L34.823,143.299h442.355L256,364.477z"/>
	</g>
</g>
<g>
	<g>
		<path d="M225.766,285.453l-84.944-84.944c-3.985-3.983-10.441-3.983-14.425,0c-3.983,3.984-3.983,10.442,0,14.425l84.944,84.944
			c1.992,1.992,4.601,2.987,7.212,2.987c2.611,0,5.22-0.995,7.213-2.987C229.749,295.894,229.749,289.436,225.766,285.453z"/>
	</g>
</g>
<g>
	<g>
		<path d="M259.475,319.161l-4.719-4.719c-3.985-3.983-10.441-3.983-14.425,0c-3.983,3.984-3.983,10.442,0,14.425l4.719,4.719
			c1.992,1.992,4.601,2.987,7.212,2.987c2.611,0,5.22-0.995,7.213-2.987C263.458,329.602,263.458,323.144,259.475,319.161z"/>
	</g>
</g>
<g>
</g>
<g>
</g>
<g>
</g>
<g>
</g>
<g>
</g>
<g>
</g>
<g>
</g>
<g>
</g>
<g>
</g>
<g>
</g>
<g>
</g>
<g>
</g>
<g>
</g>
<g>
</g>
<g>
</g>
</svg>
