<?xml version="1.0" encoding="iso-8859-1"?>
<!-- Generator: Adobe Illustrator 19.0.0, SVG Export Plug-In . SVG Version: 6.00 Build 0)  -->
<svg version="1.1" id="Layer_1" xmlns="http://www.w3.org/2000/svg" xmlns:xlink="http://www.w3.org/1999/xlink" x="0px" y="0px"
	 viewBox="0 0 512 512" style="enable-background:new 0 0 512 512;" xml:space="preserve">
<g>
	<g>
		<path d="M509.013,371.688L263.212,125.888c-3.984-3.982-10.441-3.983-14.425,0L2.987,371.688
			c-2.916,2.917-3.789,7.305-2.21,11.115c1.579,3.81,5.298,6.296,9.423,6.296h491.602c4.126,0,7.845-2.484,9.423-6.296
			S511.929,374.605,509.013,371.688z M34.823,368.701l221.178-221.178l221.177,221.178H34.823z"/>
	</g>
</g>
<g>
	<g>
		<path d="M385.604,297.065l-84.944-84.944c-3.985-3.983-10.441-3.983-14.425,0c-3.983,3.984-3.983,10.442,0,14.425l84.944,84.944
			c1.992,1.992,4.601,2.987,7.212,2.987c2.611,0,5.22-0.995,7.213-2.987C389.587,307.506,389.587,301.048,385.604,297.065z"/>
	</g>
</g>
<g>
	<g>
		<path d="M271.671,183.132l-4.719-4.719c-3.985-3.983-10.442-3.983-14.425,0c-3.983,3.984-3.983,10.442,0,14.425l4.719,4.719
			c1.992,1.992,4.601,2.987,7.212,2.987c2.611,0,5.22-0.995,7.213-2.987C275.653,193.573,275.653,187.114,271.671,183.132z"/>
	</g>
</g>
<g>
</g>
<g>
</g>
<g>
</g>
<g>
</g>
<g>
</g>
<g>
</g>
<g>
</g>
<g>
</g>
<g>
</g>
<g>
</g>
<g>
</g>
<g>
</g>
<g>
</g>
<g>
</g>
<g>
</g>
</svg>
